<?xml version="1.0" standalone="no"?>
<!DOCTYPE svg PUBLIC "-//W3C//DTD SVG 20010904//EN"
 "http://www.w3.org/TR/2001/REC-SVG-20010904/DTD/svg10.dtd">
<svg version="1.0" xmlns="http://www.w3.org/2000/svg"
 width="259.000000pt" height="259.000000pt" viewBox="0 0 259.000000 259.000000"
 preserveAspectRatio="xMidYMid meet">
<metadata>
Created by potrace 1.11, written by Peter Selinger 2001-2013
</metadata>
<g transform="translate(0.000000,259.000000) scale(0.100000,-0.100000)"
fill="#000000" stroke="none">
<path d="M765 2500 c-355 -71 -632 -335 -727 -691 -22 -83 -22 -94 -25 -898
-4 -756 -3 -815 13 -832 17 -19 46 -19 853 -19 887 1 910 2 1050 50 316 106
551 372 621 702 18 85 19 128 16 498 -1 223 -6 421 -10 440 -73 345 -305 612
-628 721 -130 43 -190 48 -643 47 -374 0 -442 -2 -520 -18z m1149 -639 c15
-17 17 -59 14 -503 l-3 -485 -30 -48 c-39 -63 -95 -102 -166 -117 -101 -21
-94 -64 -94 585 0 541 1 559 19 573 14 10 51 14 131 14 97 0 114 -3 129 -19z
m-986 -149 c16 -16 17 -52 17 -500 0 -467 -1 -484 -19 -498 -30 -22 -233 -20
-258 3 -17 15 -18 44 -18 499 0 425 2 484 16 498 24 25 237 23 262 -2z m479
-136 c11 -4 23 -17 26 -29 3 -12 5 -199 5 -416 -1 -369 -2 -395 -20 -413 -15
-15 -34 -18 -128 -18 -95 0 -113 3 -129 19 -18 18 -19 39 -19 423 1 421 2 431
43 440 32 6 198 2 222 -6z"/>
</g>
</svg>
